<?xml version="1.0" standalone="no"?>
<!DOCTYPE svg PUBLIC "-//W3C//DTD SVG 20010904//EN"
 "http://www.w3.org/TR/2001/REC-SVG-20010904/DTD/svg10.dtd">
<svg version="1.0" xmlns="http://www.w3.org/2000/svg"
 width="584.000000pt" height="427.000000pt" viewBox="0 0 584.000000 427.000000"
 preserveAspectRatio="xMidYMid meet">

<g transform="translate(0.000000,427.000000) scale(0.100000,-0.100000)"
fill="#000000" stroke="none">
<path d="M2795 3791 c-321 -32 -688 -210 -925 -450 -131 -133 -214 -249 -296
-416 -105 -215 -150 -389 -161 -615 -25 -565 241 -1090 709 -1394 98 -64 278
-152 382 -188 l68 -23 17 23 c9 13 30 40 48 61 30 35 31 40 26 97 -11 118 49
221 156 272 l56 27 18 80 c29 126 28 125 91 125 31 0 58 -5 63 -12 6 -7 18
-64 29 -127 16 -100 23 -122 57 -172 29 -43 42 -75 51 -128 11 -68 13 -71 59
-102 27 -18 66 -56 88 -85 21 -29 43 -55 48 -58 15 -10 177 52 305 116 177 88
284 165 426 308 197 196 320 403 394 660 43 150 54 218 62 371 19 333 -81 677
-280 969 -72 106 -281 312 -391 385 -183 122 -411 220 -603 260 -86 18 -381
27 -497 16z m264 -678 c65 -88 154 -267 185 -370 50 -166 60 -244 59 -463 0
-181 -3 -220 -26 -334 -27 -132 -101 -365 -144 -449 l-24 -48 -122 3 -122 3
-22 45 c-12 25 -42 106 -67 180 -129 385 -138 748 -30 1093 39 123 142 313
207 385 33 36 53 28 106 -45z m-435 -955 c3 -13 7 -52 10 -88 6 -81 50 -296
82 -403 31 -103 30 -111 -8 -138 -18 -12 -54 -42 -80 -66 -26 -24 -51 -43 -56
-43 -15 0 -22 13 -126 227 l-98 203 56 87 c30 49 83 123 117 166 64 80 95 96
103 55z m822 -43 c77 -87 174 -234 174 -265 1 -31 -190 -417 -209 -425 -8 -3
-32 11 -55 33 -23 21 -58 51 -80 66 -44 33 -44 41 -6 171 33 114 58 243 70
353 6 57 14 110 17 118 10 26 32 14 89 -51z"/>
<path d="M2921 2624 c-26 -22 -31 -33 -31 -71 0 -58 14 -81 57 -99 42 -18 83
-11 111 19 94 100 -33 239 -137 151z"/>
</g>
</svg>
